<?xml version="1.0" standalone="no"?><!DOCTYPE svg PUBLIC "-//W3C//DTD SVG 1.1//EN" "http://www.w3.org/Graphics/SVG/1.1/DTD/svg11.dtd"><svg class="icon" width="200px" height="200.00px" viewBox="0 0 1024 1024" version="1.1" xmlns="http://www.w3.org/2000/svg"><path d="M640.0512 51.2c35.3792 0 64 29.4912 64 65.8432v52.8384l44.6464-26.4192a63.0784 63.0784 0 0 1 87.4496 24.1152l128.0512 228.0448c17.7152 31.488 7.168 71.7312-23.4496 89.9072l-44.544 26.4192 44.544 26.5216c30.6688 18.176 41.1648 58.4192 23.4496 89.9072l-128.0512 228.0448a63.0784 63.0784 0 0 1-87.4496 24.064l-44.5952-26.4192v52.8896c0 36.352-28.672 65.8432-64 65.8432H383.8976c-35.3792 0-64-29.4912-64-65.8432l-0.0512-52.8896-44.544 26.4704a63.0784 63.0784 0 0 1-87.5008-24.1152l-128.0512-228.0448a66.8672 66.8672 0 0 1 23.4496-89.9072L127.744 512l-44.544-26.4704a66.8672 66.8672 0 0 1-23.3984-89.9072l128.0512-228.0448a63.0784 63.0784 0 0 1 87.4496-24.064l44.544 26.368 0.0512-52.8384c0-36.352 28.672-65.8432 64-65.8432h256.1536z m0 65.8432H384v52.8896c-0.0512 50.6368-53.3504 82.2784-96.0512 56.9856l-44.544-26.4192L115.2 428.544l44.544 26.4704c42.5984 25.344 42.5984 88.576 0 113.9712l-44.544 26.4704 128.0512 228.0448 44.544-26.4704c42.7008-25.344 96.0512 6.2976 96.0512 56.9856v52.9408h256.1536v-52.8896c0-50.688 53.3504-82.3808 96.0512-57.0368l44.544 26.4704 128.1024-228.0448-44.5952-26.5728c-42.6496-25.3952-42.5984-88.6784 0.1024-113.9712l44.544-26.368-128.1024-228.0448-44.6464 26.4192c-42.7008 25.2928-96.0512-6.4-96-57.0368V117.0432zM512 347.4432c88.4224 0 160.1024 73.6768 160.1024 164.5568s-71.68 164.5568-160.1024 164.5568c-88.4224 0-160.1024-73.6768-160.1024-164.5568S423.5776 347.4432 512 347.4432z m0 65.792c-53.0432 0-96.0512 44.2368-96.0512 98.7648s43.008 98.7648 96.0512 98.7648 96.0512-44.2368 96.0512-98.7648-43.008-98.7648-96.0512-98.7648z"  /></svg>